<mxfile host="app.diagrams.net" modified="2021-08-31T02:21:15.287Z" agent="5.0 (Windows NT 10.0; Win64; x64) AppleWebKit/537.36 (KHTML, like Gecko) Chrome/92.0.4515.159 Safari/537.36 Edg/92.0.902.84" etag="Hohqw5o_tR64YhPR5grP" version="15.0.3" type="github">
  <diagram id="xB5CWRzruUTUXc5xDvux" name="Page-1">
    <mxGraphModel dx="1038" dy="579" grid="0" gridSize="10" guides="1" tooltips="1" connect="1" arrows="1" fold="1" page="1" pageScale="1" pageWidth="827" pageHeight="1169" math="0" shadow="0">
      <root>
        <mxCell id="0" />
        <mxCell id="1" parent="0" />
        <mxCell id="dvLIRJP0Ob4-i5YpCXI8-1" value="5M uboot" style="rounded=0;whiteSpace=wrap;html=1;strokeColor=#d79b00;fillColor=#FFB570;" vertex="1" parent="1">
          <mxGeometry x="230" y="110" width="120" height="20" as="geometry" />
        </mxCell>
        <mxCell id="dvLIRJP0Ob4-i5YpCXI8-2" value="64M linux-a" style="rounded=0;whiteSpace=wrap;html=1;fillColor=#fff2cc;strokeColor=#d6b656;" vertex="1" parent="1">
          <mxGeometry x="230" y="130" width="120" height="30" as="geometry" />
        </mxCell>
        <mxCell id="dvLIRJP0Ob4-i5YpCXI8-4" value="64M linux-b" style="rounded=0;whiteSpace=wrap;html=1;fillColor=#fff2cc;strokeColor=#d6b656;" vertex="1" parent="1">
          <mxGeometry x="230" y="160" width="120" height="30" as="geometry" />
        </mxCell>
        <mxCell id="dvLIRJP0Ob4-i5YpCXI8-5" value="3G rootfs-a" style="rounded=0;whiteSpace=wrap;html=1;fillColor=#f8cecc;strokeColor=#b85450;" vertex="1" parent="1">
          <mxGeometry x="230" y="190" width="120" height="90" as="geometry" />
        </mxCell>
        <mxCell id="dvLIRJP0Ob4-i5YpCXI8-6" value="3G rootfs-b" style="rounded=0;whiteSpace=wrap;html=1;fillColor=#f8cecc;strokeColor=#b85450;" vertex="1" parent="1">
          <mxGeometry x="230" y="280" width="120" height="90" as="geometry" />
        </mxCell>
        <mxCell id="dvLIRJP0Ob4-i5YpCXI8-7" value="500M ext-app" style="rounded=0;whiteSpace=wrap;html=1;fillColor=#008a00;strokeColor=#005700;fontColor=#ffffff;" vertex="1" parent="1">
          <mxGeometry x="230" y="370" width="120" height="60" as="geometry" />
        </mxCell>
        <mxCell id="dvLIRJP0Ob4-i5YpCXI8-8" value="data" style="rounded=0;whiteSpace=wrap;html=1;fillColor=#0050ef;strokeColor=#001DBC;fontColor=#ffffff;" vertex="1" parent="1">
          <mxGeometry x="230" y="430" width="120" height="60" as="geometry" />
        </mxCell>
        <mxCell id="dvLIRJP0Ob4-i5YpCXI8-10" value="8G eMMC" style="text;html=1;strokeColor=none;fillColor=none;align=center;verticalAlign=middle;whiteSpace=wrap;rounded=0;" vertex="1" parent="1">
          <mxGeometry x="255" y="83" width="70" height="20" as="geometry" />
        </mxCell>
      </root>
    </mxGraphModel>
  </diagram>
</mxfile>
